<?xml version="1.0" encoding="UTF-8" standalone="no"?>
<!DOCTYPE svg PUBLIC "-//W3C//DTD SVG 1.1//EN"
 "http://www.w3.org/Graphics/SVG/1.1/DTD/svg11.dtd">
<!-- Generated by graphviz version 2.28.0 (20111109.1828)
 -->
<!-- Title: G Pages: 1 -->
<svg width="894pt" height="646pt"
 viewBox="0.00 0.00 894.00 646.00" xmlns="http://www.w3.org/2000/svg" xmlns:xlink="http://www.w3.org/1999/xlink">
<g id="graph1" class="graph" transform="scale(1 1) rotate(0) translate(4 642)">
<title>G</title>
<polygon fill="white" stroke="white" points="-4,5 -4,-642 891,-642 891,5 -4,5"/>
<g id="graph2" class="cluster"><title>cluster_phMagick</title>
<polyline fill="none" stroke="gray" points="166,-8 866,-8 "/>
<path fill="none" stroke="gray" d="M866,-8C872,-8 878,-14 878,-20"/>
<polyline fill="none" stroke="gray" points="878,-20 878,-618 "/>
<path fill="none" stroke="gray" d="M878,-618C878,-624 872,-630 866,-630"/>
<polyline fill="none" stroke="gray" points="866,-630 166,-630 "/>
<path fill="none" stroke="gray" d="M166,-630C160,-630 154,-624 154,-618"/>
<polyline fill="none" stroke="gray" points="154,-618 154,-20 "/>
<path fill="none" stroke="gray" d="M154,-20C154,-14 160,-8 166,-8"/>
<text text-anchor="middle" x="516" y="-617.2" font-family="Times,serif" font-size="11.00" fill="gray">phMagick</text>
</g>
<g id="graph3" class="cluster"><title>cluster_phMagick\Action</title>
<polyline fill="none" stroke="gray" points="594,-16 858,-16 "/>
<path fill="none" stroke="gray" d="M858,-16C864,-16 870,-22 870,-28"/>
<polyline fill="none" stroke="gray" points="870,-28 870,-210 "/>
<path fill="none" stroke="gray" d="M870,-210C870,-216 864,-222 858,-222"/>
<polyline fill="none" stroke="gray" points="858,-222 594,-222 "/>
<path fill="none" stroke="gray" d="M594,-222C588,-222 582,-216 582,-210"/>
<polyline fill="none" stroke="gray" points="582,-210 582,-28 "/>
<path fill="none" stroke="gray" d="M582,-28C582,-22 588,-16 594,-16"/>
<text text-anchor="middle" x="726" y="-209.2" font-family="Times,serif" font-size="11.00" fill="gray">Action</text>
</g>
<g id="graph4" class="cluster"><title>cluster_phMagick\Action\Resize</title>
<polyline fill="none" stroke="gray" points="602,-24 850,-24 "/>
<path fill="none" stroke="gray" d="M850,-24C856,-24 862,-30 862,-36"/>
<polyline fill="none" stroke="gray" points="862,-36 862,-138 "/>
<path fill="none" stroke="gray" d="M862,-138C862,-144 856,-150 850,-150"/>
<polyline fill="none" stroke="gray" points="850,-150 602,-150 "/>
<path fill="none" stroke="gray" d="M602,-150C596,-150 590,-144 590,-138"/>
<polyline fill="none" stroke="gray" points="590,-138 590,-36 "/>
<path fill="none" stroke="gray" d="M590,-36C590,-30 596,-24 602,-24"/>
<text text-anchor="middle" x="726" y="-137.2" font-family="Times,serif" font-size="11.00" fill="gray">Resize</text>
</g>
<g id="graph6" class="cluster"><title>cluster_phMagick\Core</title>
<polyline fill="none" stroke="gray" points="174,-16 530,-16 "/>
<path fill="none" stroke="gray" d="M530,-16C536,-16 542,-22 542,-28"/>
<polyline fill="none" stroke="gray" points="542,-28 542,-590 "/>
<path fill="none" stroke="gray" d="M542,-590C542,-596 536,-602 530,-602"/>
<polyline fill="none" stroke="gray" points="530,-602 174,-602 "/>
<path fill="none" stroke="gray" d="M174,-602C168,-602 162,-596 162,-590"/>
<polyline fill="none" stroke="gray" points="162,-590 162,-28 "/>
<path fill="none" stroke="gray" d="M162,-28C162,-22 168,-16 174,-16"/>
<text text-anchor="middle" x="352" y="-589.2" font-family="Times,serif" font-size="11.00" fill="gray">Core</text>
</g>
<g id="graph7" class="cluster"><title>cluster_phMagick\Core\Exception</title>
<polyline fill="none" stroke="gray" points="198,-448 522,-448 "/>
<path fill="none" stroke="gray" d="M522,-448C528,-448 534,-454 534,-460"/>
<polyline fill="none" stroke="gray" points="534,-460 534,-562 "/>
<path fill="none" stroke="gray" d="M534,-562C534,-568 528,-574 522,-574"/>
<polyline fill="none" stroke="gray" points="522,-574 198,-574 "/>
<path fill="none" stroke="gray" d="M198,-574C192,-574 186,-568 186,-562"/>
<polyline fill="none" stroke="gray" points="186,-562 186,-460 "/>
<path fill="none" stroke="gray" d="M186,-460C186,-454 192,-448 198,-448"/>
<text text-anchor="middle" x="360" y="-561.2" font-family="Times,serif" font-size="11.00" fill="gray">Exception</text>
</g>
<!-- \\phMagick\\Action\\Resize\\Stretch -->
<g id="node4" class="node"><title>\\phMagick\\Action\\Resize\\Stretch</title>
<a xlink:href="db_Action_Resize_Stretch.html" xlink:title="Stretch" target="_parent">
<polygon fill="none" stroke="black" points="837,-122 773,-122 773,-86 837,-86 837,-122"/>
<text text-anchor="middle" x="805" y="-101.2" font-family="Courier,monospace" font-size="11.00">Stretch</text>
</a>
</g>
<!-- \\phMagick\\Action\\Resize\\Base -->
<g id="node6" class="node"><title>\\phMagick\\Action\\Resize\\Base</title>
<a xlink:href="db_Action_Resize_Base.html" xlink:title="«abstract»&lt;br/&gt;Base" target="_parent">
<polygon fill="none" stroke="black" points="683.5,-114 598.5,-114 598.5,-78 683.5,-78 683.5,-114"/>
<text text-anchor="start" x="607" y="-99.7" font-family="Courier,monospace" font-size="11.00">«abstract»</text>
<text text-anchor="start" x="627" y="-88.7" font-family="Courier,monospace" font-size="11.00">Base</text>
</a>
</g>
<!-- \\phMagick\\Action\\Resize\\Stretch&#45;&gt;\\phMagick\\Action\\Resize\\Base -->
<g id="edge9" class="edge"><title>\\phMagick\\Action\\Resize\\Stretch&#45;&gt;\\phMagick\\Action\\Resize\\Base</title>
<path fill="none" stroke="black" d="M772.765,-102.458C750.362,-101.351 719.667,-99.8354 693.646,-98.5504"/>
<polygon fill="none" stroke="black" points="693.722,-95.05 683.561,-98.0524 693.376,-102.041 693.722,-95.05"/>
</g>
<!-- \\phMagick\\Action\\Resize\\Proportional -->
<g id="node5" class="node"><title>\\phMagick\\Action\\Resize\\Proportional</title>
<a xlink:href="db_Action_Resize_Proportional.html" xlink:title="Proportional" target="_parent">
<polygon fill="none" stroke="black" points="854,-68 756,-68 756,-32 854,-32 854,-68"/>
<text text-anchor="middle" x="805" y="-47.2" font-family="Courier,monospace" font-size="11.00">Proportional</text>
</a>
</g>
<!-- \\phMagick\\Action\\Resize\\Proportional&#45;&gt;\\phMagick\\Action\\Resize\\Base -->
<g id="edge11" class="edge"><title>\\phMagick\\Action\\Resize\\Proportional&#45;&gt;\\phMagick\\Action\\Resize\\Base</title>
<path fill="none" stroke="black" d="M755.833,-63.677C736.205,-69.2503 713.481,-75.7028 693.522,-81.3702"/>
<polygon fill="none" stroke="black" points="692.335,-78.0689 683.671,-84.1674 694.247,-84.8027 692.335,-78.0689"/>
</g>
<!-- \\phMagick\\Core\\Action -->
<g id="node21" class="node"><title>\\phMagick\\Core\\Action</title>
<a xlink:href="db_Core_Action.html" xlink:title="«abstract»&lt;br/&gt;Action" target="_parent">
<polygon fill="none" stroke="black" points="489.5,-114 404.5,-114 404.5,-78 489.5,-78 489.5,-114"/>
<text text-anchor="start" x="413" y="-99.7" font-family="Courier,monospace" font-size="11.00">«abstract»</text>
<text text-anchor="start" x="426.5" y="-88.7" font-family="Courier,monospace" font-size="11.00">Action</text>
</a>
</g>
<!-- \\phMagick\\Action\\Resize\\Base&#45;&gt;\\phMagick\\Core\\Action -->
<g id="edge13" class="edge"><title>\\phMagick\\Action\\Resize\\Base&#45;&gt;\\phMagick\\Core\\Action</title>
<path fill="none" stroke="black" d="M598.339,-96C569.405,-96 530.651,-96 499.738,-96"/>
<polygon fill="none" stroke="black" points="499.58,-92.5001 489.58,-96 499.58,-99.5001 499.58,-92.5001"/>
</g>
<!-- \\phMagick\\Action\\Watermark -->
<g id="node7" class="node"><title>\\phMagick\\Action\\Watermark</title>
<a xlink:href="db_Action_Watermark.html" xlink:title="Watermark" target="_parent">
<polygon fill="none" stroke="black" points="843.5,-194 766.5,-194 766.5,-158 843.5,-158 843.5,-194"/>
<text text-anchor="middle" x="805" y="-173.2" font-family="Courier,monospace" font-size="11.00">Watermark</text>
</a>
</g>
<!-- \\phMagick\\Action\\Watermark&#45;&gt;\\phMagick\\Core\\Action -->
<g id="edge15" class="edge"><title>\\phMagick\\Action\\Watermark&#45;&gt;\\phMagick\\Core\\Action</title>
<path fill="none" stroke="black" d="M766.381,-178.468C720.995,-180.071 643.168,-178.364 582,-154 561.105,-145.677 562.058,-133.176 542,-123 528.713,-116.259 513.49,-110.967 499.22,-106.922"/>
<polygon fill="none" stroke="black" points="500.094,-103.533 489.529,-104.319 498.278,-110.293 500.094,-103.533"/>
</g>
<!-- \\phMagick\\Core\\Exception\\Exception -->
<g id="node11" class="node"><title>\\phMagick\\Core\\Exception\\Exception</title>
<a xlink:href="db_Core_Exception_Exception.html" xlink:title="Exception" target="_parent">
<polygon fill="none" stroke="black" points="271.5,-519 194.5,-519 194.5,-483 271.5,-483 271.5,-519"/>
<text text-anchor="middle" x="233" y="-498.2" font-family="Courier,monospace" font-size="11.00">Exception</text>
</a>
</g>
<!-- \\Exception -->
<g id="node29" class="node"><title>\\Exception</title>
<ellipse fill="none" stroke="black" cx="49" cy="-501" rx="48.9926" ry="18"/>
<text text-anchor="middle" x="49" y="-497.3" font-family="Times,serif" font-size="14.00" fill="gray">\Exception</text>
</g>
<!-- \\phMagick\\Core\\Exception\\Exception&#45;&gt;\\Exception -->
<g id="edge17" class="edge"><title>\\phMagick\\Core\\Exception\\Exception&#45;&gt;\\Exception</title>
<path fill="none" stroke="black" d="M194.289,-501C169.438,-501 136.399,-501 108.207,-501"/>
<polygon fill="none" stroke="black" points="108.064,-497.5 98.0639,-501 108.064,-504.5 108.064,-497.5"/>
</g>
<!-- \\phMagick\\Core\\Exception\\SystemException -->
<g id="node12" class="node"><title>\\phMagick\\Core\\Exception\\SystemException</title>
<a xlink:href="db_Core_Exception_SystemException.html" xlink:title="SystemException" target="_parent">
<polygon fill="none" stroke="black" points="506,-546 388,-546 388,-510 506,-510 506,-546"/>
<text text-anchor="middle" x="447" y="-525.2" font-family="Courier,monospace" font-size="11.00">SystemException</text>
</a>
</g>
<!-- \\phMagick\\Core\\Exception\\SystemException&#45;&gt;\\phMagick\\Core\\Exception\\Exception -->
<g id="edge19" class="edge"><title>\\phMagick\\Core\\Exception\\SystemException&#45;&gt;\\phMagick\\Core\\Exception\\Exception</title>
<path fill="none" stroke="black" d="M387.79,-520.586C354.531,-516.351 313.333,-511.104 281.95,-507.107"/>
<polygon fill="none" stroke="black" points="282.072,-503.594 271.71,-505.803 281.187,-510.538 282.072,-503.594"/>
</g>
<!-- \\phMagick\\Core\\Exception\\PathNotFoundException -->
<g id="node13" class="node"><title>\\phMagick\\Core\\Exception\\PathNotFoundException</title>
<a xlink:href="db_Core_Exception_PathNotFoundException.html" xlink:title="PathNotFoundException" target="_parent">
<polygon fill="none" stroke="black" points="526,-492 368,-492 368,-456 526,-456 526,-492"/>
<text text-anchor="middle" x="447" y="-471.2" font-family="Courier,monospace" font-size="11.00">PathNotFoundException</text>
</a>
</g>
<!-- \\phMagick\\Core\\Exception\\PathNotFoundException&#45;&gt;\\phMagick\\Core\\Exception\\Exception -->
<g id="edge21" class="edge"><title>\\phMagick\\Core\\Exception\\PathNotFoundException&#45;&gt;\\phMagick\\Core\\Exception\\Exception</title>
<path fill="none" stroke="black" d="M367.962,-483.939C339.011,-487.626 307.064,-491.695 281.63,-494.934"/>
<polygon fill="none" stroke="black" points="280.991,-491.487 271.514,-496.222 281.876,-498.431 280.991,-491.487"/>
</g>
<!-- \\phMagick\\Core\\Command -->
<g id="node14" class="node"><title>\\phMagick\\Core\\Command</title>
<a xlink:href="db_Core_Command.html" xlink:title="Command" target="_parent">
<polygon fill="none" stroke="black" points="479,-438 415,-438 415,-402 479,-402 479,-438"/>
<text text-anchor="middle" x="447" y="-417.2" font-family="Courier,monospace" font-size="11.00">Command</text>
</a>
</g>
<!-- \\phMagick\\Core\\AutoLoad -->
<g id="node15" class="node"><title>\\phMagick\\Core\\AutoLoad</title>
<a xlink:href="db_Core_autoload.html" xlink:title="AutoLoad" target="_parent">
<polygon fill="none" stroke="black" points="482.5,-384 411.5,-384 411.5,-348 482.5,-348 482.5,-384"/>
<text text-anchor="middle" x="447" y="-363.2" font-family="Courier,monospace" font-size="11.00">AutoLoad</text>
</a>
</g>
<!-- \\phMagick\\Core\\Settings -->
<g id="node16" class="node"><title>\\phMagick\\Core\\Settings</title>
<a xlink:href="db_Core_Settings.html" xlink:title="Settings" target="_parent">
<polygon fill="none" stroke="black" points="482.5,-330 411.5,-330 411.5,-294 482.5,-294 482.5,-330"/>
<text text-anchor="middle" x="447" y="-309.2" font-family="Courier,monospace" font-size="11.00">Settings</text>
</a>
</g>
<!-- \\phMagick\\Core\\Path -->
<g id="node17" class="node"><title>\\phMagick\\Core\\Path</title>
<a xlink:href="db_Core_Path.html" xlink:title="Path" target="_parent">
<polygon fill="none" stroke="black" points="474,-276 420,-276 420,-240 474,-240 474,-276"/>
<text text-anchor="middle" x="447" y="-255.2" font-family="Courier,monospace" font-size="11.00">Path</text>
</a>
</g>
<!-- \\phMagick\\Core\\ActionCollection -->
<g id="node18" class="node"><title>\\phMagick\\Core\\ActionCollection</title>
<a xlink:href="db_Core_ActionCollection.html" xlink:title="ActionCollection" target="_parent">
<polygon fill="none" stroke="black" points="295.5,-60 170.5,-60 170.5,-24 295.5,-24 295.5,-60"/>
<text text-anchor="middle" x="233" y="-39.2" font-family="Courier,monospace" font-size="11.00">ActionCollection</text>
</a>
</g>
<!-- \\phMagick\\Core\\System -->
<g id="node19" class="node"><title>\\phMagick\\Core\\System</title>
<a xlink:href="db_Core_System.html" xlink:title="System" target="_parent">
<polygon fill="none" stroke="black" points="475.5,-222 418.5,-222 418.5,-186 475.5,-186 475.5,-222"/>
<text text-anchor="middle" x="447" y="-201.2" font-family="Courier,monospace" font-size="11.00">System</text>
</a>
</g>
<!-- \\phMagick\\Core\\Logger -->
<g id="node20" class="node"><title>\\phMagick\\Core\\Logger</title>
<a xlink:href="db_Core_Logger.html" xlink:title="Logger" target="_parent">
<polygon fill="none" stroke="black" points="475.5,-168 418.5,-168 418.5,-132 475.5,-132 475.5,-168"/>
<text text-anchor="middle" x="447" y="-147.2" font-family="Courier,monospace" font-size="11.00">Logger</text>
</a>
</g>
<!-- \\phMagick\\Core\\Runner -->
<g id="node22" class="node"><title>\\phMagick\\Core\\Runner</title>
<a xlink:href="db_Core_Runner.html" xlink:title="Runner" target="_parent">
<polygon fill="none" stroke="black" points="475.5,-60 418.5,-60 418.5,-24 475.5,-24 475.5,-60"/>
<text text-anchor="middle" x="447" y="-39.2" font-family="Courier,monospace" font-size="11.00">Runner</text>
</a>
</g>
<!-- \\phMagick\\Core\\Runner&#45;&gt;\\phMagick\\Core\\ActionCollection -->
<g id="edge23" class="edge"><title>\\phMagick\\Core\\Runner&#45;&gt;\\phMagick\\Core\\ActionCollection</title>
<path fill="none" stroke="black" d="M418.285,-42C389.849,-42 344.43,-42 305.799,-42"/>
<polygon fill="none" stroke="black" points="305.622,-38.5001 295.622,-42 305.622,-45.5001 305.622,-38.5001"/>
</g>
</g>
</svg>
